<svg xmlns="http://www.w3.org/2000/svg" width="512.006" height="509.4" viewBox="0 0 512.006 509.4">
  <g id="logo1" transform="translate(0 -1.303)">
    <path id="Контур_1" data-name="Контур 1" d="M446.312,139.791c28.256,39.632,39.376,85.168,32.32,128.224a71.171,71.171,0,0,1,25.792,26.944c16.928-57.536,5.2-120.448-32.7-173.632C424.232,55.055,345.64,16.879,256.008,16.879S87.784,55.071,40.3,121.343C2.232,174.751-9.464,237.967,7.768,295.7a71.351,71.351,0,0,1,25.7-27.024c-7.28-43.28,3.84-89.168,32.24-128.864,41.5-58.08,110.944-91.376,190.3-91.376C335.384,48.431,404.824,81.727,446.312,139.791Z" fill="#bbc7d1"/>
    <g id="Сгруппировать_1" data-name="Сгруппировать 1">
      <path id="Контур_2" data-name="Контур 2" d="M.12,318.735C-3.288,214,85.416,241.951,69.48,283.023c-6.336,17.1-7.44,40.688-.96,60.112,11.95,35.9-36.207,59.987-58.263,20.4C4.639,353.456.692,338.75.12,318.735Z" fill="#fff"/>
      <path id="Контур_3" data-name="Контур 3" d="M511.912,318.735c-2.8,98.112-82.992,65.52-69.68,28.224v-.16c7.9-22.576,6.912-46.016.16-63.776C427.176,241.567,515.288,214.8,511.912,318.735Z" fill="#fff"/>
      <path id="Контур_4" data-name="Контур 4" d="M409.176,47.6c5.136,2.9,6.7,10.272,3.408,15.536l-17.968,27.68a11.04,11.04,0,0,1-15.056,3.408c-71.7-44.848-173.824-45.5-247.232,0a10.749,10.749,0,0,1-14.9-3.408L99.3,63.135c-4.16-5.616-6-13.024,0-18.272C210.776-17.889,312.216-9.185,409.176,47.6Z" fill="#fff"/>
    </g>
    <g id="Сгруппировать_2" data-name="Сгруппировать 2">
      <path id="Контур_5" data-name="Контур 5" d="M28.68,314.719a238.675,238.675,0,0,1,12.656-77.2,44.645,44.645,0,0,1,84.512,28.816,149.613,149.613,0,0,0-7.888,48.384,145.9,145.9,0,0,0,7.936,48.112C147.272,424.191,28.68,475.775,28.68,314.719Z" fill="#ccc"/>
      <path id="Контур_6" data-name="Контур 6" d="M483.3,314.719a238.675,238.675,0,0,0-12.656-77.2,44.645,44.645,0,0,0-84.512,28.816,149.613,149.613,0,0,1,7.888,48.384,145.9,145.9,0,0,1-7.936,48.112C364.728,424.191,483.3,475.775,483.3,314.719Z" fill="#ccc"/>
    </g>
    <circle id="Эллипс_1" data-name="Эллипс 1" cx="196" cy="196" r="196" transform="translate(59.992 118.703)" fill="#efbb51"/>
    <path id="Контур_7" data-name="Контур 7" d="M359.784,388.623c-20.528,42.112-59.216,70.528-103.712,70.528s-83.184-28.416-103.856-70.528c-3.424-7.136,2.976-14.88,10.72-13.248a436.245,436.245,0,0,0,186.144,0C356.808,373.759,363.208,381.487,359.784,388.623Z" fill="#3e4347"/>
    <path id="Контур_8" data-name="Контур 8" d="M451.992,314.7c0,108.288-87.76,196-196,196a195.569,195.569,0,0,1-152.56-72.944,194.922,194.922,0,0,0,123.04,43.424c108.224,0,196-87.712,196-196a194.889,194.889,0,0,0-43.424-123.04A195.743,195.743,0,0,1,451.992,314.7Z" fill="#efaf2d"/>
    <path id="Контур_9" data-name="Контур 9" d="M240.056,278.751A59.16,59.16,0,1,1,180.792,219.7,59.278,59.278,0,0,1,240.056,278.751Z" fill="#fff"/>
    <path id="Контур_10" data-name="Контур 10" d="M207.848,278.767A26.936,26.936,0,1,1,180.84,251.9,27.034,27.034,0,0,1,207.848,278.767Z" fill="#3e4347"/>
    <g id="Сгруппировать_3" data-name="Сгруппировать 3">
      <ellipse id="Эллипс_2" data-name="Эллипс 2" cx="8.56" cy="5.152" rx="8.56" ry="5.152" transform="translate(192.837 279.071) rotate(-135)" fill="#fff"/>
      <path id="Контур_11" data-name="Контур 11" d="M390.248,278.751A59.16,59.16,0,1,1,330.984,219.7,59.278,59.278,0,0,1,390.248,278.751Z" fill="#fff"/>
    </g>
    <path id="Контур_12" data-name="Контур 12" d="M358.024,278.767A26.936,26.936,0,1,1,331.016,251.9,27.034,27.034,0,0,1,358.024,278.767Z" fill="#3e4347"/>
    <g id="Сгруппировать_4" data-name="Сгруппировать 4">
      <ellipse id="Эллипс_3" data-name="Эллипс 3" cx="8.56" cy="5.152" rx="8.56" ry="5.152" transform="translate(343.022 279.064) rotate(-135)" fill="#fff"/>
      <path id="Контур_13" data-name="Контур 13" d="M166.552,376.079c19.536,37.328,35.856,38.4,89.424,38.4,53.488,0,70.112-1.072,89.568-38.416A436.1,436.1,0,0,1,166.552,376.079Z" fill="#fff"/>
    </g>
    <path id="Контур_14" data-name="Контур 14" d="M256.072,459.167c23.584,0,45.44-8.16,63.936-21.952a65.416,65.416,0,0,0-16.576-17.136c-6.016-4.208-14.064-3.632-20.272.352-15.488,9.968-34.064,10.784-49.7,6.688-6.832-1.92-14.416-.016-18.816,5.472a62.648,62.648,0,0,0-8.384,13.664A104.4,104.4,0,0,0,256.072,459.167Z" fill="#e24b4b"/>
  </g>
</svg>
